<svg class="hero-schematic" xmlns="http://www.w3.org/2000/svg" viewBox="0 0 420 420" role="img" aria-labelledby="hero-schematic-title hero-schematic-desc">
  <title id="hero-schematic-title">Arrow of intent — schematic</title>
  <desc id="hero-schematic-desc">Five nodes — HLD, LLDs, EARS, Tests, Code — connected by a trace line, drawn as a technical diagram with dimension marks and annotations.</desc>
<!-- Node rects have a hardcoded dark fill attribute. Light-mode override
     comes from an external CSS media query targeting these classes.
     No CSS variables inside SVG, no inline <style> block, no mask —
     this combination avoids the Firefox-Mobile quirks that killed the
     earlier approaches. -->


  <g stroke="currentColor" stroke-width="0.8" opacity="0.5">
    <path d="M 8 8 L 18 8 M 8 8 L 8 18"/>
    <path d="M 412 8 L 402 8 M 412 8 L 412 18"/>
    <path d="M 8 412 L 18 412 M 8 412 L 8 402"/>
    <path d="M 412 412 L 402 412 M 412 412 L 412 402"/>
  </g>

  <text x="295" y="396" class="label">PLATE · 001</text>
  <text x="295" y="408" class="label" style="fill: var(--nib)">ARROW / INTENT</text>
  <text x="14" y="408" class="coord">COORD · A1</text>

  <g class="dim" opacity="0.6">
    <line x1="40" y1="20" x2="40" y2="24"/>
    <line x1="100" y1="20" x2="100" y2="24"/>
    <line x1="160" y1="20" x2="160" y2="24"/>
    <line x1="220" y1="20" x2="220" y2="24"/>
    <line x1="280" y1="20" x2="280" y2="24"/>
    <line x1="340" y1="20" x2="340" y2="24"/>
    <line x1="400" y1="20" x2="400" y2="24"/>
    <line x1="20" y1="40" x2="24" y2="40"/>
    <line x1="20" y1="100" x2="24" y2="100"/>
    <line x1="20" y1="160" x2="24" y2="160"/>
    <line x1="20" y1="220" x2="24" y2="220"/>
    <line x1="20" y1="280" x2="24" y2="280"/>
    <line x1="20" y1="340" x2="24" y2="340"/>
  </g>

  <g class="dim">
    <line x1="45" y1="50" x2="375" y2="50"/>
    <path d="M 45 47 L 45 53 M 375 47 L 375 53"/>
    <text x="210" y="44" text-anchor="middle" class="coord" style="font-size: 6px">INTENT · ONE DIRECTION DOWNSTREAM</text>
  </g>

  <path class="trace-line" pathLength="1" d="M 90 130 Q 155 130 170 170 Q 185 210 250 210 Q 315 210 330 250 Q 345 290 345 325"/>

  <g class="fade-in" style="--d: 0.4s">
    <rect x="55" y="115" width="70" height="30" class="node" fill="#0c1117"/>
    <text x="90" y="134" text-anchor="middle" class="node-label">HLD</text>
  </g>
  <text x="90" y="104" text-anchor="middle" class="label">§ 01 · VISION</text>
  <g class="dim" opacity="0.65">
    <line x1="90" y1="147" x2="90" y2="162"/>
    <line x1="82" y1="162" x2="98" y2="162"/>
  </g>
  <text x="90" y="174" text-anchor="middle" class="coord">PROBLEM · APPROACH</text>

  <g class="fade-in" style="--d: 0.6s">
    <rect x="135" y="155" width="70" height="30" class="node" fill="#0c1117"/>
    <text x="170" y="174" text-anchor="middle" class="node-label">LLDs</text>
  </g>
  <text x="170" y="144" text-anchor="middle" class="label">§ 02 · COMPONENTS</text>

  <g class="fade-in" style="--d: 0.8s">
    <rect x="215" y="195" width="70" height="30" class="node-accent" fill="#0c1117"/>
    <text x="250" y="214" text-anchor="middle" class="node-label" style="fill: var(--nib)">EARS</text>
  </g>
  <text x="250" y="184" text-anchor="middle" class="label" style="fill: var(--nib)">§ 03 · CLAIMS</text>
  <g class="dim" opacity="0.65">
    <line x1="250" y1="227" x2="250" y2="242"/>
    <line x1="242" y1="242" x2="258" y2="242"/>
  </g>
  <text x="250" y="254" text-anchor="middle" class="coord">GREP-ADDRESSABLE</text>

  <g class="fade-in" style="--d: 1.0s">
    <rect x="295" y="235" width="70" height="30" class="node" fill="#0c1117"/>
    <text x="330" y="254" text-anchor="middle" class="node-label">Tests</text>
  </g>
  <text x="330" y="224" text-anchor="middle" class="label">§ 04 · FAILING-FIRST</text>

  <g class="fade-in" style="--d: 1.2s">
    <rect x="310" y="310" width="70" height="30" class="node" fill="#0c1117"/>
    <text x="345" y="329" text-anchor="middle" class="node-label">Code</text>
  </g>
  <text x="345" y="299" text-anchor="middle" class="label">§ 05 · COMPILED</text>
  <g class="dim" opacity="0.65">
    <line x1="345" y1="342" x2="345" y2="357"/>
    <line x1="337" y1="357" x2="353" y2="357"/>
  </g>
  <text x="345" y="369" text-anchor="middle" class="coord">REGENERABLE FROM INTENT</text>

  <!-- Cascade leader: from EARS top-right corner, diagonal up to CASCADE label -->
  <g class="dim cascade-leader" opacity="0.7">
    <path d="M 285 197 L 348 108"/>
    <circle cx="285" cy="197" r="1.5" fill="currentColor"/>
    <!-- Tiny terminal tick perpendicular to leader end -->
    <line x1="345" y1="105" x2="351" y2="111"/>
  </g>
  <text x="392" y="106" text-anchor="end" class="label" style="fill: var(--nib); font-size: 7.5px">CASCADE</text>
  <text x="392" y="118" text-anchor="end" class="coord">CHANGE FLOWS DOWN</text>

</svg>
